<?xml version="1.0" encoding="utf-8"?>
<svg xmlns="http://www.w3.org/2000/svg" xmlns:xlink="http://www.w3.org/1999/xlink" style="margin: auto; background: none; display: block; shape-rendering: auto;" width="280px" height="280px" viewBox="0 0 100 100" preserveAspectRatio="xMidYMid">
<g transform="translate(50 50)">
<g>
<animateTransform attributeName="transform" type="rotate" values="0;27.692307692307693" keyTimes="0;1" dur="0.16666666666666666s" repeatCount="indefinite"></animateTransform><path d="M29.58039891549808 -5 L37.58039891549808 -5 L37.58039891549808 5 L29.58039891549808 5 A30 30 0 0 1 28.515758321172292 9.319416686064267 L28.515758321172292 9.319416686064267 L35.59940652639797 13.037202062414416 L30.952174805960286 21.89176231894652 L23.868526600734608 18.17397694259637 A30 30 0 0 1 20.91850114760725 21.503867320497353 L20.91850114760725 21.503867320497353 L25.463019121456497 28.087738247646605 L17.233180462519936 33.768385714958164 L12.68866248867069 27.18451478780891 A30 30 0 0 1 8.529067456392571 28.76204110149878 L8.529067456392571 28.76204110149878 L9.493360898435157 36.70371209428321 L-0.43372784254538077 37.90907889683645 L-1.3980212845879667 29.967407904052013 A30 30 0 0 1 -5.814272802676262 29.431177886317414 L-5.814272802676262 29.431177886317414 L-8.651111899016547 36.911307827800734 L-18.001274325870696 33.365258957375374 L-15.164435229530413 25.885129015892055 A30 30 0 0 1 -18.825633232235113 23.357986501523737 L-18.825633232235113 23.357986501523737 L-24.813719217603918 28.6629677674501 L-31.44494580001187 21.17786028573909 L-25.456859814643064 15.872879019812725 A30 30 0 0 1 -27.52426796176353 11.933761903483646 L-27.52426796176353 11.933761903483646 L-35.291802501171944 13.848287217784112 L-37.684959144047525 4.138869043523593 L-29.917424604639113 2.224343729223128 A30 30 0 0 1 -29.917424604639116 -2.2243437292231074 L-29.917424604639116 -2.2243437292231074 L-37.68495914404753 -4.138869043523567 L-35.29180250117196 -13.848287217784085 L-27.52426796176354 -11.933761903483626 A30 30 0 0 1 -25.456859814643078 -15.872879019812709 L-25.456859814643078 -15.872879019812709 L-31.444945800011887 -21.17786028573907 L-24.81371921760394 -28.662967767450084 L-18.82563323223513 -23.357986501523722 A30 30 0 0 1 -15.164435229530435 -25.885129015892048 L-15.164435229530435 -25.885129015892048 L-18.00127432587072 -33.36525895737537 L-8.65111189901655 -36.911307827800734 L-5.814272802676263 -29.431177886317414 A30 30 0 0 1 -1.3980212845880073 -29.96740790405201 L-1.3980212845880073 -29.96740790405201 L-0.43372784254542873 -37.90907889683644 L9.493360898435135 -36.70371209428322 L8.529067456392557 -28.762041101498784 A30 30 0 0 1 12.688662488670671 -27.18451478780892 L12.688662488670671 -27.18451478780892 L17.233180462519915 -33.76838571495817 L25.463019121456497 -28.0877382476466 L20.918501147607255 -21.50386732049735 A30 30 0 0 1 23.868526600734587 -18.173976942596394 L23.868526600734587 -18.173976942596394 L30.95217480596026 -21.891762318946547 L35.59940652639796 -13.037202062414432 L28.51575832117229 -9.319416686064278 A30 30 0 0 1 29.580398915498076 -5.0000000000000195 M0 -20A20 20 0 1 0 0 20 A20 20 0 1 0 0 -20" fill="#e7c82d"></path></g></g>
<!-- [ldio] generated by https://loading.io/ --></svg>